<?xml version="1.0" encoding="UTF-8" standalone="no"?>
<svg
   version="1.1"
   id="Layer_1"
   x="0px"
   y="0px"
   width="456"
   viewBox="0 0 450 450"
   xml:space="preserve"
   height="456"
   xmlns="http://www.w3.org/2000/svg"
   xmlns:svg="http://www.w3.org/2000/svg"><defs
     id="defs16" /><path
     fill="#95969a"
     opacity="1"
     stroke="none"
     d="m 353.38717,270.43751 c -10.3716,-4.94043 -21.42431,-7.59432 -32.72077,-8.97375 -16.36078,-1.99787 -32.82374,-3.17609 -49.16847,-5.28297 -15.2105,-1.96065 -22.48777,-13.2154 -18.00364,-27.85791 4.50023,-14.6951 9.41558,-29.28363 14.74232,-43.69962 6.05905,-16.39789 23.6983,-28.22874 41.17708,-28.25004 8.62471,-0.0105 17.34551,-0.52146 25.85264,0.54791 13.44836,1.69051 20.76539,12.69268 17.20084,25.86229 -3.09575,11.43774 -7.41623,22.54474 -11.21772,33.79038 -1.56093,4.61751 -3.0828,9.25321 -4.84934,13.79235 -0.38655,0.99317 -1.81771,2.36621 -2.63628,2.28223 -7.55968,-0.77556 -15.09048,-1.83276 -23.1051,-2.86958 0.53015,-1.85705 0.8894,-3.38671 1.40072,-4.86375 4.17067,-12.04747 8.38969,-24.07824 12.55055,-36.12909 1.68645,-4.88433 0.77787,-6.13488 -4.34505,-6.15042 -6.38283,-0.0194 -12.76581,-0.0191 -19.14864,-7.5e-4 -4.87154,0.014 -6.59479,1.27094 -8.1896,6.02147 -4.01783,11.96808 -8.02331,23.94035 -12.00461,35.92061 -1.49945,4.51203 -0.76861,5.547 3.83848,6.15086 18.69625,2.45058 37.43456,4.63856 56.06167,7.53803 12.33657,1.92029 23.39524,7.1043 32.43003,16.0594 2.23079,2.2111 3.42496,4.58896 3.33863,7.93315 -0.23248,9.00497 -0.0735,18.02006 -0.30999,27.23576 -4.17268,-10.47175 -13.24527,-15.10276 -22.89375,-19.05643 z"
     id="path2"
     style="stroke-width:0.750961" /><path
     fill="#bdbec0"
     opacity="1"
     stroke="none"
     d="m 353.00784,270.44871 c 10.02781,3.94247 19.1004,8.57347 23.25851,19.39903 1.38726,2.68069 0.60573,3.94948 -2.20971,3.90923 -0.87563,-0.0125 -1.75163,-4.6e-4 -2.62744,-4.6e-4 -97.71687,1.1e-4 -195.43371,1.6e-4 -293.150563,1.8e-4 -1.599146,0 -3.198292,-10e-6 -5.214987,-10e-6 0.08834,-1.46184 -0.06074,-2.58929 0.251411,-3.56993 1.856212,-5.8312 3.708694,-11.66969 5.849132,-17.39863 0.380149,-1.01747 2.036331,-1.69245 3.237639,-2.21913 0.734649,-0.32209 1.725569,-0.0598 2.601391,-0.0598 87.832567,-6e-4 175.665117,-7.5e-4 263.497707,-0.004 1.37585,-3e-5 2.75172,-0.0297 4.50691,-0.0568"
     id="path3"
     style="stroke-width:0.750961" /><path
     fill="#29b675"
     opacity="1"
     stroke="none"
     d="m 207.43138,156.95256 c 12.87139,-0.0457 25.75773,-0.49815 38.61008,-0.0259 13.61824,0.50041 22.67302,15.71503 18.02139,29.78706 -4.07554,12.32925 -8.4397,24.56544 -12.8332,36.78636 -2.61626,7.27741 -5.29443,14.55094 -8.38178,21.63577 -3.51991,8.07752 -9.47338,12.1107 -18.85409,11.8049 -15.8611,-0.51706 -31.75124,-0.1431 -47.62917,-0.14375 -1.3572,-6e-5 -2.71438,0 -4.76926,0 11.57017,-33.19578 22.97695,-65.92276 34.77029,-98.91358 0.61294,-0.48619 0.83934,-0.70854 1.06574,-0.93089 m -2.181,73.69401 c 3.87306,0.002 7.75566,-0.1627 11.61641,0.0565 3.61852,0.20547 5.61714,-1.51096 6.73011,-4.6842 0.99126,-2.82625 1.96244,-5.65955 2.93685,-8.4917 3.4507,-10.02942 6.93612,-20.04715 10.32855,-30.09626 1.22497,-3.62861 0.48989,-4.63488 -3.16986,-4.68279 -3.74751,-0.049 -7.50827,-0.17883 -11.23689,0.0909 -1.1168,0.0808 -2.76731,1.16267 -3.12064,2.15916 -5.12937,14.46598 -10.09077,28.99168 -15.03217,43.52356 -0.20143,0.59241 0.18911,1.38611 0.94764,2.12481 z"
     id="path4"
     style="stroke-width:0.750961" /><path
     fill="#2586c9"
     opacity="1"
     stroke="none"
     d="m 139.85804,169.1352 c -2.78002,8.05103 -5.47742,15.81804 -8.32779,24.02553 9.70356,0 19.01151,0 28.9487,0 -2.01316,5.88197 -3.85027,11.26433 -5.69741,16.64322 -3.25572,9.48068 -3.25828,9.47992 -13.42153,9.47978 -5.12546,-7e-5 -10.26022,0.18372 -15.37269,-0.0743 -2.80118,-0.14136 -3.8918,0.95535 -4.72869,3.45098 -3.49337,10.41733 -7.2442,20.74817 -10.75918,31.1585 -0.75266,2.22916 -1.77547,3.10918 -4.22837,3.04514 -6.978782,-0.18213 -13.965397,-0.0639 -21.449359,-0.0639 2.367613,-6.83825 4.596666,-13.29374 6.837452,-19.74517 8.929557,-25.70905 17.901847,-51.40342 26.733497,-77.14605 0.87294,-2.54445 1.98906,-3.49468 4.72891,-3.41066 6.84842,0.21002 13.7076,0.0692 21.13513,0.0692 -1.53534,4.36965 -2.9257,8.32664 -4.39867,12.56767 z"
     id="path5"
     style="stroke-width:0.750961" /><path
     fill="#2586c9"
     opacity="1"
     stroke="none"
     d="m 182.74583,156.56762 c 6.7268,4e-4 13.09402,4e-4 19.87915,4e-4 -0.36374,1.31904 -0.58879,2.35822 -0.93426,3.3557 -10.79363,31.16414 -21.62689,62.31462 -32.34931,93.5032 -0.85377,2.48338 -1.89093,3.53587 -4.68454,3.44998 -7.35528,-0.22615 -14.72215,-0.0765 -22.58368,-0.0765 2.98528,-8.61971 5.82962,-16.85207 8.68723,-25.0798 8.11602,-23.36804 16.35529,-46.69455 24.24479,-70.13879 1.36989,-4.07072 3.21939,-5.83201 7.74062,-5.01422 z"
     id="path6"
     style="stroke-width:0.750961" /><path
     fill="#1bb26b"
     opacity="1"
     stroke="none"
     d="m 207.17108,156.94638 c 0.0339,0.22853 -0.1925,0.45088 -0.65846,0.72405 -0.027,-0.20953 0.18559,-0.46988 0.65846,-0.72405 z"
     id="path7"
     style="stroke-width:0.750961" /><path
     d="m 242.53283,278.51869 c -0.37221,0.002 -0.6886,0.0686 -0.94916,0.20571 -0.24193,0.13713 -0.45596,0.31713 -0.64207,0.53998 -0.1675,0.2057 -0.30708,0.43712 -0.41874,0.69425 -0.11167,0.25713 -0.20473,0.50569 -0.27916,0.74568 l -1.03291,2.69988 c -0.0931,0.23999 -0.1768,0.48855 -0.25124,0.74568 -0.0744,0.25714 -0.10237,0.48855 -0.0838,0.69425 0.0186,0.20571 0.10234,0.37714 0.25124,0.51427 0.14889,0.13713 0.40028,0.21579 0.75375,0.2057 l 1.18571,-0.0339 c 0.20464,-0.006 0.38154,-0.0257 0.53042,-0.0771 0.1675,-0.0686 0.29777,-0.21428 0.39082,-0.43714 l 0.64256,-1.6966 5.45431,0.002 c -0.22333,0.61711 -1.17417,3.2626 -1.54639,3.87971 -0.35361,0.59997 -0.77236,1.13995 -1.25624,1.61993 -0.48388,0.46284 -1.0329,0.84853 -1.64706,1.15709 -0.61415,0.29142 -1.29347,0.43331 -2.03789,0.43713 l -6.60148,0.0339 c -0.76304,0.004 -1.33998,-0.14572 -1.73081,-0.43713 -0.39083,-0.30856 -0.65137,-0.69425 -0.78166,-1.15709 -0.13027,-0.47998 -0.14886,-1.01996 -0.0558,-1.61993 0.0931,-0.61711 0.25125,-1.23423 0.47458,-1.85134 l 2.48455,-6.65971 c 0.22333,-0.61711 0.51179,-1.22565 0.8654,-1.82563 0.37222,-0.61711 0.80027,-1.15709 1.28415,-1.61993 0.50249,-0.47998 1.06082,-0.86567 1.67498,-1.15709 0.63276,-0.30856 1.32137,-0.46035 2.0658,-0.46284 l 10.11894,-0.0339 c 0.11166,-3.8e-4 0.1861,0.0515 0.22332,0.15427 0.0559,0.10286 0.0559,0.22286 0,0.35999 l -1.42373,3.83126 c -0.0558,0.13714 -0.14888,0.25713 -0.27916,0.35998 -0.11166,0.10285 -0.22333,0.15373 -0.335,0.15428 z m 26.26925,0.20571 c 0.22333,-0.61711 0.38152,-1.22565 0.47457,-1.82563 0.0931,-0.61711 0.0744,-1.15709 -0.0558,-1.61993 -0.13029,-0.47998 -0.40015,-0.86567 -0.80958,-1.15709 -0.39083,-0.30856 -0.95846,-0.46283 -1.70289,-0.46283 h -11.78067 c -0.22333,0 -0.39083,0.1457 -0.50249,0.43712 l -5.94618,15.91643 c -0.11166,0.29141 -0.0559,0.43712 0.1675,0.43712 h 4.94118 c 0.20472,0 0.36292,-0.14571 0.47458,-0.43712 l 4.18744,-11.23665 c 0.0372,-0.0857 0.0744,-0.1457 0.11167,-0.17999 0.0559,-0.0515 0.14889,-0.0771 0.27916,-0.0771 h 3.54537 c 0.42805,0 0.66069,0.11999 0.69791,0.35999 0.0559,0.22284 0.009,0.51425 -0.13958,0.87424 -0.14889,0.37713 -0.31639,0.67711 -0.5025,0.89996 -0.16749,0.2057 -0.46526,0.3257 -0.89332,0.35998 h -2.65204 c -0.31638,0 -0.51181,0.10286 -0.58624,0.30857 l -1.59123,4.24266 c -0.0559,0.20571 0.0651,0.30856 0.36291,0.30856 h 2.26121 c 0.335,0.017 0.56763,0.10284 0.69792,0.25714 0.13027,0.13713 0.19541,0.30855 0.19541,0.51426 0.0185,0.20571 -0.0186,0.43712 -0.11166,0.69426 -0.0744,0.25712 -0.1489,0.49711 -0.22334,0.71996 l -0.72582,1.9542 c -0.11167,0.29141 -0.0559,0.43712 0.16749,0.43712 h 4.94119 c 0.22333,0 0.39083,-0.14571 0.50249,-0.43712 l 1.64706,-4.39695 c 0.0744,-0.20571 0.0838,-0.41141 0.0279,-0.61712 -0.0372,-0.22285 -0.1117,-0.42855 -0.22334,-0.61711 -0.093,-0.18856 -0.21402,-0.35142 -0.36291,-0.48855 -0.14888,-0.15428 -0.27916,-0.26571 -0.39083,-0.33427 h -0.0559 v -0.0514 c 0.70721,-0.37712 1.31207,-0.82283 1.81456,-1.33709 0.50249,-0.51426 0.86541,-1.0628 1.08874,-1.64563 z m 7.25822,-5.06548 c -0.74443,0 -1.43303,0.15427 -2.06581,0.46283 -0.61416,0.29142 -1.17248,0.67711 -1.67497,1.15709 -0.48388,0.46284 -0.91194,1.00282 -1.28415,1.61993 -0.35361,0.59998 -0.64208,1.20852 -0.86541,1.82563 l -2.48455,6.6597 c -0.22334,0.61711 -0.38152,1.23422 -0.47458,1.85134 -0.0931,0.59997 -0.0744,1.13996 0.0559,1.61994 0.13028,0.46283 0.39083,0.84852 0.78167,1.15709 0.39083,0.29141 0.96776,0.43712 1.7308,0.43712 h 8.17947 c 0.74444,0 1.42374,-0.14571 2.03789,-0.43712 0.63277,-0.30857 1.19109,-0.69426 1.67497,-1.15709 0.5025,-0.47998 0.93055,-1.01997 1.28416,-1.61994 0.37222,-0.61712 0.66999,-1.23423 0.89332,-1.85134 l 2.48454,-6.6597 c 0.22334,-0.61711 0.38152,-1.22565 0.47458,-1.82563 0.0931,-0.61711 0.0744,-1.15709 -0.0559,-1.61993 -0.13028,-0.47998 -0.40013,-0.86567 -0.80957,-1.15709 -0.39083,-0.30856 -0.95846,-0.46283 -1.70289,-0.46283 z m 3.93619,7.04539 -1.0329,2.69988 c -0.0931,0.23999 -0.19542,0.48855 -0.30708,0.74568 -0.11166,0.25714 -0.25125,0.48855 -0.41874,0.69425 -0.16749,0.20571 -0.38152,0.37714 -0.64208,0.51427 -0.24194,0.13713 -0.53972,0.2057 -0.89332,0.2057 h -2.03789 c -0.35361,0 -0.60485,-0.0686 -0.75373,-0.2057 -0.14889,-0.13713 -0.23264,-0.30856 -0.25125,-0.51427 -0.0186,-0.2057 0.009,-0.43711 0.0837,-0.69425 0.0744,-0.25713 0.15819,-0.50569 0.25125,-0.74568 l 1.03291,-2.69988 c 0.0744,-0.23999 0.1675,-0.48855 0.27916,-0.74568 0.11166,-0.25713 0.25125,-0.48855 0.41874,-0.69425 0.18611,-0.22285 0.40014,-0.40285 0.64207,-0.53998 0.26056,-0.13714 0.57694,-0.20571 0.94916,-0.20571 h 2.03789 c 0.3536,0 0.59555,0.0686 0.72582,0.20571 0.14888,0.13713 0.22333,0.31713 0.22333,0.53998 0.0186,0.2057 -0.009,0.43712 -0.0837,0.69425 -0.0744,0.25713 -0.1489,0.50569 -0.22334,0.74568 z m 12.19942,4.85978 c -0.3536,0 -0.60485,-0.0686 -0.75374,-0.2057 -0.14888,-0.13713 -0.23263,-0.30856 -0.25124,-0.51427 -0.0186,-0.2057 0.009,-0.43711 0.0838,-0.69425 0.0744,-0.25713 0.15818,-0.50569 0.25124,-0.74568 l 3.48954,-9.30815 c 0.11166,-0.29142 0.0651,-0.43712 -0.13958,-0.43712 h -4.94118 c -0.22334,0 -0.39083,0.1457 -0.5025,0.43712 l -4.21536,11.28806 c -0.22333,0.61711 -0.38152,1.23422 -0.47457,1.85134 -0.0931,0.59997 -0.0744,1.13996 0.0558,1.61994 0.13029,0.46283 0.39083,0.84852 0.78166,1.15709 0.39083,0.29141 0.96777,0.4395 1.73081,0.43712 l 8.63602,-0.027 c 2.31718,-0.007 3.83176,-1.78858 4.89092,-4.11188 l 4.7024,-12.21473 c 0.11166,-0.29142 0.0559,-0.43713 -0.1675,-0.43713 h -4.94118 c -0.22333,0 -0.39083,0.14571 -0.5025,0.43713 l -4.18744,11.23663 c -0.0372,0.0857 -0.0837,0.14571 -0.13958,0.18 -0.0373,0.0343 -0.1117,0.0514 -0.22333,0.0514 z m 29.08876,-6.83969 c 0.22333,-0.61711 0.38152,-1.22565 0.47458,-1.82563 0.0931,-0.61711 0.0744,-1.15709 -0.0559,-1.61993 -0.13027,-0.47998 -0.40013,-0.86567 -0.80958,-1.15709 -0.39083,-0.30856 -0.95846,-0.46283 -1.70288,-0.46283 h -11.78067 c -0.22334,0 -0.39083,0.1457 -0.5025,0.43712 l -5.94617,15.91643 c -0.11166,0.29141 -0.0559,0.43712 0.16751,0.43712 h 4.94117 c 0.20473,0 0.36292,-0.14571 0.47459,-0.43712 l 4.18743,-11.23665 c 0.0372,-0.0857 0.0744,-0.1457 0.11167,-0.17999 0.0559,-0.0515 0.14889,-0.0771 0.27916,-0.0771 h 3.54537 c 0.42805,0 0.66069,0.11999 0.6979,0.35999 0.0558,0.22284 0.009,0.51425 -0.13958,0.87424 -0.14888,0.37713 -0.31638,0.67711 -0.50249,0.89996 -0.1675,0.2057 -0.46527,0.3257 -0.89332,0.35998 h -2.65205 c -0.31638,0 -0.5118,0.10286 -0.58624,0.30857 l -1.59123,4.24266 c -0.0559,0.20571 0.0651,0.30856 0.36291,0.30856 h 2.26123 c 2.40936,-0.24056 3.40053,-0.18013 4.94755,-1.1531 l 1.41979,-1.06892 c 0.66027,-0.5447 1.03045,-0.96647 1.53294,-1.48072 0.5025,-0.51427 0.8654,-1.06281 1.08874,-1.64564 z"
     id="text1"
     style="font-size:35.3234px;font-family:'Easy Ride Super-Italic';-inkscape-font-specification:'Easy Ride Super-Italic, Normal';fill:#444445;stroke-width:2.23267"
     aria-label="GROUP" /></svg>
