<?xml version="1.0" encoding="UTF-8" standalone="no"?>
<svg
   version="1.1"
   id="Layer_1"
   x="0px"
   y="0px"
   width="100%"
   viewBox="0 0 450 450"
   xml:space="preserve"
   height="100%"
   xmlns="http://www.w3.org/2000/svg"
   xmlns:svg="http://www.w3.org/2000/svg"><defs
   id="defs16" />
<path
	   fill="#95969a"
	   opacity="1"
	   stroke="none"
	   d="m 395.3955,291.00077 c -13.8111,-6.57881 -28.52917,-10.1128 -43.57184,-11.94968 -21.78644,-2.66041 -43.70895,-4.22937 -65.47403,-7.03494 -20.2547,-2.61086 -29.94531,-17.59798 -23.97412,-37.09633 5.99262,-19.56838 12.53803,-38.99485 19.63126,-58.19156 8.06839,-21.83587 31.55728,-37.59014 54.83249,-37.6185 11.48489,-0.014 23.09774,-0.69439 34.42605,0.72961 17.9082,2.25112 27.65174,16.9019 22.90509,34.4389 -4.12237,15.2308 -9.87564,30.02117 -14.9378,44.99616 -2.07858,6.14881 -4.10514,12.32183 -6.45752,18.36626 -0.51474,1.32253 -2.4205,3.15091 -3.51053,3.03908 -10.06668,-1.03276 -20.09488,-2.44055 -30.76737,-3.82121 0.70597,-2.47289 1.18436,-4.50983 1.86524,-6.47669 5.55377,-16.04274 11.17193,-32.06323 16.71265,-48.11046 2.24572,-6.5041 1.03582,-8.16936 -5.78599,-8.19006 -8.49954,-0.0258 -16.99929,-0.0255 -25.49883,-0.001 -6.48707,0.0186 -8.7818,1.69242 -10.90549,8.01835 -5.35025,15.93701 -10.68405,31.8796 -15.98566,47.83284 -1.9967,6.00833 -1.0235,7.38653 5.11142,8.19064 24.89642,3.26326 49.84885,6.17683 74.6532,10.03784 16.4277,2.55711 31.15372,9.46028 43.18469,21.38512 2.97058,2.94436 4.56076,6.11078 4.4458,10.56399 -0.30957,11.99126 -0.0979,23.99599 -0.41278,36.26786 -5.55646,-13.94446 -17.63776,-20.11123 -30.48593,-25.37604 z"
	   id="path2" />
<path
	   fill="#bdbec0"
	   opacity="1"
	   stroke="none"
	   d="m 394.89037,291.01569 c 13.3533,5.24989 25.4346,11.41666 30.97165,25.83226 1.84732,3.56967 0.80661,5.25923 -2.9425,5.20563 -1.16602,-0.0167 -2.33252,-6.1e-4 -3.49878,-6.1e-4 -130.12235,1.5e-4 -260.24468,2.1e-4 -390.367014,2.4e-4 -2.129465,0 -4.25893,-10e-6 -6.944414,-10e-6 0.117634,-1.94663 -0.08089,-3.44797 0.334786,-4.75382 2.47178,-7.76498 4.938594,-15.53967 7.788858,-23.16847 0.506216,-1.3549 2.711632,-2.25371 4.311325,-2.95505 0.978279,-0.42891 2.297814,-0.0796 3.464081,-0.0796 116.960168,-7.9e-4 233.920308,-10e-4 350.880488,-0.005 1.83212,-5e-5 3.66427,-0.0396 6.00152,-0.0756"
	   id="path3" />
<path
	   fill="#29b675"
	   opacity="1"
	   stroke="none"
	   d="m 201.03692,139.88122 c 17.13988,-0.0608 34.29967,-0.66335 51.4142,-0.0345 18.13441,0.66636 30.192,20.92655 23.99776,39.66523 -5.4271,16.41796 -11.23853,32.71199 -17.08902,48.98569 -3.48389,9.69079 -7.05021,19.37641 -11.1614,28.81076 -4.68721,10.75624 -12.615,16.12693 -25.10661,15.71972 -21.12105,-0.68854 -42.28079,-0.19056 -63.42426,-0.19143 -1.80728,-8e-5 -3.61454,0 -6.35087,0 15.40715,-44.20437 30.59671,-87.78448 46.30104,-131.71593 0.81621,-0.64742 1.11769,-0.9435 1.41916,-1.23959 m -2.90427,98.13288 c 5.15747,0.003 10.32764,-0.21665 15.46872,0.0752 4.81851,0.27361 7.47992,-2.01203 8.96199,-6.2376 1.31999,-3.76351 2.61324,-7.53641 3.91078,-11.30777 4.59505,-13.35544 9.23632,-26.69532 13.75377,-40.07698 1.6312,-4.83195 0.65235,-6.17193 -4.22107,-6.23573 -4.99028,-0.0653 -9.99821,-0.23813 -14.96333,0.12107 -1.48717,0.10759 -3.68503,1.54825 -4.15553,2.8752 -6.8304,19.26328 -13.43714,38.60609 -20.01723,57.95712 -0.26823,0.78887 0.25182,1.84578 1.2619,2.82945 z"
	   id="path4" />
<path
	   fill="#2586c9"
	   opacity="1"
	   stroke="none"
	   d="m 111.05448,156.10394 c -3.70195,10.72097 -7.29388,21.06373 -11.089506,31.99303 12.921526,0 25.316236,0 38.548856,0 -2.68078,7.83259 -5.12712,14.99988 -7.58682,22.16256 -4.3354,12.62472 -4.33881,12.62371 -17.87246,12.62352 -6.8252,-9e-5 -13.662788,0.24465 -20.47068,-0.0989 -3.730133,-0.18824 -5.182426,1.27217 -6.296852,4.59542 -4.651863,13.87199 -9.646568,27.62881 -14.32721,41.49147 -1.002265,2.96841 -2.364257,4.14027 -5.630607,4.055 -9.293129,-0.24253 -18.596691,-0.0851 -28.562531,-0.0851 3.152775,-9.10599 6.121041,-17.70229 9.104931,-26.29319 11.890827,-34.23484 23.838574,-68.45015 35.599026,-102.72971 1.16243,-3.38825 2.648689,-4.65361 6.297142,-4.54173 9.119537,0.27967 18.253401,0.0922 28.144101,0.0922 -2.0445,5.81873 -3.89594,11.08797 -5.85739,16.73544 z"
	   id="path5" />
<path
	   fill="#2586c9"
	   opacity="1"
	   stroke="none"
	   d="m 168.165,139.36863 c 8.95758,5.2e-4 17.43634,5.2e-4 26.47159,5.2e-4 -0.48436,1.75648 -0.78404,3.14028 -1.24408,4.46854 -14.37308,41.49899 -28.79894,82.97979 -43.0772,124.51133 -1.1369,3.30694 -2.518,4.70846 -6.23805,4.59408 -9.79449,-0.30114 -19.6044,-0.10183 -30.07303,-0.10183 3.97528,-11.47823 7.76288,-22.44065 11.56815,-33.39691 10.80751,-31.1175 21.77913,-62.1797 32.285,-93.39867 1.82418,-5.42068 4.28702,-7.76606 10.30762,-6.67706 z"
	   id="path6" />
<path
	   fill="#1bb26b"
	   opacity="1"
	   stroke="none"
	   d="m 200.6903,139.87299 c 0.0451,0.30432 -0.25633,0.6004 -0.87682,0.96417 -0.0359,-0.27902 0.24714,-0.62571 0.87682,-0.96417 z"
	   id="path7" />
<path
	   d="m 247.77894,301.76189 c -0.49564,0.002 -0.91696,0.0913 -1.26392,0.27392 -0.32217,0.18261 -0.60718,0.4223 -0.855,0.71905 -0.22305,0.27392 -0.40892,0.58209 -0.55761,0.92448 -0.1487,0.34241 -0.27262,0.67339 -0.37174,0.99298 l -1.37544,3.59523 c -0.12391,0.31957 -0.23544,0.65056 -0.33457,0.99296 -0.0991,0.34241 -0.13631,0.65057 -0.11152,0.92449 0.0247,0.27392 0.13628,0.5022 0.33456,0.68481 0.19826,0.18261 0.53302,0.28735 1.00371,0.27391 l 1.57893,-0.0451 c 0.2725,-0.008 0.50806,-0.0342 0.70632,-0.10271 0.22304,-0.0913 0.39652,-0.28534 0.52042,-0.5821 l 0.85566,-2.25924 7.2631,0.003 c -0.2974,0.82176 -1.56356,4.34456 -2.05922,5.16632 -0.47087,0.79894 -1.02849,1.51799 -1.67284,2.15714 -0.64435,0.61633 -1.37543,1.12993 -2.19327,1.54081 -0.81782,0.38806 -1.72241,0.57701 -2.7137,0.5821 l -8.79071,0.0451 c -1.01608,0.005 -1.78435,-0.19404 -2.30479,-0.5821 -0.52044,-0.41088 -0.86739,-0.92448 -1.04088,-1.54081 -0.17347,-0.63915 -0.19823,-1.3582 -0.0743,-2.15714 0.1239,-0.82176 0.33456,-1.64353 0.63196,-2.46529 l 3.30849,-8.86824 c 0.29739,-0.82176 0.68151,-1.63212 1.15239,-2.43106 0.49565,-0.82177 1.06566,-1.54081 1.71001,-2.15714 0.66913,-0.63916 1.41261,-1.15276 2.23044,-1.54081 0.84261,-0.41089 1.75958,-0.61302 2.75088,-0.61633 l 13.47464,-0.0451 c 0.14869,-5e-4 0.24782,0.0686 0.29739,0.20544 0.0744,0.13696 0.0744,0.29676 0,0.47937 l -1.89588,5.1018 c -0.0743,0.18262 -0.19826,0.34241 -0.37174,0.47936 -0.14869,0.13696 -0.29739,0.20472 -0.44609,0.20544 z m 34.98083,0.27392 c 0.29739,-0.82176 0.50804,-1.63211 0.63195,-2.43105 0.12392,-0.82177 0.0991,-1.54082 -0.0743,-2.15715 -0.17349,-0.63915 -0.53284,-1.15275 -1.07805,-1.54081 -0.52044,-0.41088 -1.27631,-0.61632 -2.26762,-0.61632 H 264.2843 c -0.29739,0 -0.52044,0.19403 -0.66913,0.58209 l -7.91808,21.19473 c -0.14869,0.38805 -0.0744,0.58208 0.22304,0.58208 h 6.57981 c 0.27261,0 0.48327,-0.19403 0.63196,-0.58208 l 5.57611,-14.96301 c 0.0496,-0.11413 0.0991,-0.19402 0.1487,-0.23969 0.0744,-0.0686 0.19826,-0.10271 0.37174,-0.10271 h 4.7211 c 0.57001,0 0.87979,0.15978 0.92936,0.47936 0.0744,0.29675 0.0124,0.6848 -0.18587,1.16417 -0.19826,0.50219 -0.42131,0.90166 -0.66914,1.19841 -0.22304,0.27392 -0.61956,0.43371 -1.18957,0.47936 h -3.53153 c -0.4213,0 -0.68153,0.13697 -0.78065,0.41089 l -2.11893,5.64964 c -0.0744,0.27394 0.0867,0.41089 0.48327,0.41089 h 3.01109 c 0.44609,0.0227 0.75587,0.13695 0.92936,0.34241 0.17347,0.18261 0.26021,0.41088 0.26021,0.68481 0.0247,0.27392 -0.0248,0.58208 -0.14869,0.92449 -0.0991,0.34239 -0.19827,0.66197 -0.2974,0.95872 l -0.96652,2.60226 c -0.1487,0.38805 -0.0744,0.58208 0.22304,0.58208 h 6.57981 c 0.29739,0 0.52044,-0.19403 0.66913,-0.58208 l 2.19327,-5.85509 c 0.0991,-0.27393 0.11152,-0.54784 0.0371,-0.82177 -0.0496,-0.29675 -0.14874,-0.57067 -0.2974,-0.82176 -0.12392,-0.2511 -0.285,-0.46796 -0.48326,-0.65057 -0.19826,-0.20544 -0.37174,-0.35382 -0.52044,-0.44512 h -0.0744 v -0.0685 c 0.94174,-0.50219 1.74718,-1.0957 2.41631,-1.7805 0.66913,-0.68481 1.1524,-1.41526 1.4498,-2.19137 z m 9.66523,-6.74533 c -0.9913,0 -1.90826,0.20544 -2.75088,0.61632 -0.81783,0.38806 -1.56131,0.90166 -2.23044,1.54081 -0.64435,0.61633 -1.21436,1.33538 -1.71001,2.15715 -0.47087,0.79894 -0.85501,1.60929 -1.1524,2.43105 l -3.30849,8.86823 c -0.2974,0.82177 -0.50804,1.64353 -0.63196,2.4653 -0.12391,0.79894 -0.0991,1.518 0.0744,2.15715 0.17348,0.61632 0.52044,1.12992 1.04088,1.54081 0.52044,0.38805 1.2887,0.58208 2.30479,0.58208 h 10.89199 c 0.99132,0 1.89589,-0.19403 2.71371,-0.58208 0.84262,-0.41089 1.58609,-0.92449 2.23044,-1.54081 0.66914,-0.63915 1.23914,-1.35821 1.71001,-2.15715 0.49566,-0.82177 0.89218,-1.64353 1.18957,-2.4653 l 3.30849,-8.86823 c 0.2974,-0.82176 0.50804,-1.63211 0.63196,-2.43105 0.12392,-0.82177 0.0991,-1.54082 -0.0744,-2.15715 -0.17348,-0.63915 -0.53283,-1.15275 -1.07805,-1.54081 -0.52044,-0.41088 -1.27631,-0.61632 -2.26761,-0.61632 z m 5.24154,9.38184 -1.37544,3.59523 c -0.12391,0.31957 -0.26022,0.65056 -0.40891,0.99296 -0.14869,0.34241 -0.33457,0.65057 -0.55761,0.92449 -0.22304,0.27392 -0.50804,0.5022 -0.85501,0.68481 -0.32218,0.18261 -0.7187,0.27391 -1.18957,0.27391 h -2.71371 c -0.47087,0 -0.80543,-0.0913 -1.00369,-0.27391 -0.19826,-0.18261 -0.30979,-0.41089 -0.33457,-0.68481 -0.0247,-0.27392 0.0124,-0.58208 0.11152,-0.92449 0.0991,-0.3424 0.21065,-0.67339 0.33457,-0.99296 l 1.37544,-3.59523 c 0.0991,-0.31959 0.22305,-0.65057 0.37174,-0.99298 0.14869,-0.34239 0.33457,-0.65056 0.55761,-0.92448 0.24783,-0.29675 0.53283,-0.53644 0.855,-0.71905 0.34697,-0.18261 0.76827,-0.27392 1.26392,-0.27392 h 2.71371 c 0.47087,0 0.79305,0.0913 0.96652,0.27392 0.19826,0.18261 0.2974,0.4223 0.2974,0.71905 0.0247,0.27392 -0.0124,0.58209 -0.11152,0.92448 -0.0991,0.34241 -0.19827,0.67339 -0.2974,0.99298 z m 16.24507,6.4714 c -0.47087,0 -0.80544,-0.0913 -1.0037,-0.27391 -0.19826,-0.18261 -0.30978,-0.41089 -0.33456,-0.68481 -0.0247,-0.27392 0.0124,-0.58208 0.11152,-0.92449 0.0991,-0.3424 0.21064,-0.67339 0.33456,-0.99296 l 4.64677,-12.39498 c 0.14869,-0.38806 0.0867,-0.58209 -0.18588,-0.58209 h -6.5798 c -0.2974,0 -0.52044,0.19403 -0.66914,0.58209 l -5.61329,15.03147 c -0.29739,0.82177 -0.50804,1.64353 -0.63195,2.4653 -0.12392,0.79894 -0.0991,1.518 0.0743,2.15715 0.17349,0.61632 0.52044,1.12992 1.04088,1.54081 0.52044,0.38805 1.2887,0.58525 2.30479,0.58208 l 11.49995,-0.0359 c 3.08562,-0.009 5.10247,-2.38171 6.51288,-5.47548 l 6.26183,-16.26546 c 0.1487,-0.38806 0.0744,-0.5821 -0.22304,-0.5821 h -6.57981 c -0.29739,0 -0.52044,0.19404 -0.66914,0.5821 l -5.57611,14.96299 c -0.0496,0.11414 -0.11149,0.19404 -0.18586,0.23969 -0.0496,0.0457 -0.14874,0.0684 -0.2974,0.0684 z m 38.73536,-9.10791 c 0.29739,-0.82176 0.50804,-1.63211 0.63196,-2.43105 0.12392,-0.82177 0.0991,-1.54082 -0.0744,-2.15715 -0.17347,-0.63915 -0.53282,-1.15275 -1.07805,-1.54081 -0.52044,-0.41088 -1.27631,-0.61632 -2.26761,-0.61632 h -15.68745 c -0.2974,0 -0.52044,0.19403 -0.66914,0.58209 l -7.91807,21.19473 c -0.14869,0.38805 -0.0744,0.58208 0.22305,0.58208 h 6.5798 c 0.27262,0 0.48327,-0.19403 0.63197,-0.58208 l 5.5761,-14.96301 c 0.0496,-0.11413 0.0991,-0.19402 0.1487,-0.23969 0.0744,-0.0686 0.19826,-0.10271 0.37173,-0.10271 h 4.72112 c 0.56999,0 0.87978,0.15978 0.92934,0.47936 0.0743,0.29675 0.0124,0.6848 -0.18587,1.16417 -0.19826,0.50219 -0.4213,0.90166 -0.66913,1.19841 -0.22305,0.27392 -0.61957,0.43371 -1.18957,0.47936 h -3.53154 c -0.4213,0 -0.68152,0.13697 -0.78065,0.41089 l -2.11892,5.64964 c -0.0744,0.27394 0.0867,0.41089 0.48326,0.41089 h 3.01111 c 3.20837,-0.32034 4.52823,-0.23986 6.58829,-1.5355 l 1.89062,-1.4234 c 0.87924,-0.72534 1.37218,-1.28697 2.04131,-1.97177 0.66914,-0.68481 1.15239,-1.41526 1.44979,-2.19137 z"
	   id="text1"
	   style="font-size:35.3234px;font-family:'Easy Ride Super-Italic';-inkscape-font-specification:'Easy Ride Super-Italic, Normal';fill:#444445;stroke-width:2.97308"
	   aria-label="GROUP" /></svg>
